<svg id="visual" viewBox="0 0 2560 1080" width="2560" height="1080" xmlns="http://www.w3.org/2000/svg" xmlns:xlink="http://www.w3.org/1999/xlink" version="1.1"><rect x="0" y="0" width="2560" height="1080" fill="#e7e7e7"></rect><path d="M0 464L61 448.5C122 433 244 402 365.8 410.7C487.7 419.3 609.3 467.7 731.2 471.8C853 476 975 436 1097 403.8C1219 371.7 1341 347.3 1463 354.8C1585 362.3 1707 401.7 1828.8 435.8C1950.7 470 2072.3 499 2194.2 489.3C2316 479.7 2438 431.3 2499 407.2L2560 383L2560 0L2499 0C2438 0 2316 0 2194.2 0C2072.3 0 1950.7 0 1828.8 0C1707 0 1585 0 1463 0C1341 0 1219 0 1097 0C975 0 853 0 731.2 0C609.3 0 487.7 0 365.8 0C244 0 122 0 61 0L0 0Z" fill="#ff385c"></path><path d="M0 290L61 290.2C122 290.3 244 290.7 365.8 304C487.7 317.3 609.3 343.7 731.2 344.8C853 346 975 322 1097 312.7C1219 303.3 1341 308.7 1463 330.3C1585 352 1707 390 1828.8 395.8C1950.7 401.7 2072.3 375.3 2194.2 365.2C2316 355 2438 361 2499 364L2560 367L2560 0L2499 0C2438 0 2316 0 2194.2 0C2072.3 0 1950.7 0 1828.8 0C1707 0 1585 0 1463 0C1341 0 1219 0 1097 0C975 0 853 0 731.2 0C609.3 0 487.7 0 365.8 0C244 0 122 0 61 0L0 0Z" fill="#e52a44"></path><path d="M0 295L61 291.2C122 287.3 244 279.7 365.8 272.3C487.7 265 609.3 258 731.2 245.5C853 233 975 215 1097 213.5C1219 212 1341 227 1463 249C1585 271 1707 300 1828.8 304.8C1950.7 309.7 2072.3 290.3 2194.2 277.3C2316 264.3 2438 257.7 2499 254.3L2560 251L2560 0L2499 0C2438 0 2316 0 2194.2 0C2072.3 0 1950.7 0 1828.8 0C1707 0 1585 0 1463 0C1341 0 1219 0 1097 0C975 0 853 0 731.2 0C609.3 0 487.7 0 365.8 0C244 0 122 0 61 0L0 0Z" fill="#cb1d2e"></path><path d="M0 134L61 150C122 166 244 198 365.8 208.3C487.7 218.7 609.3 207.3 731.2 203.2C853 199 975 202 1097 192.8C1219 183.7 1341 162.3 1463 152.7C1585 143 1707 145 1828.8 142.5C1950.7 140 2072.3 133 2194.2 131C2316 129 2438 132 2499 133.5L2560 135L2560 0L2499 0C2438 0 2316 0 2194.2 0C2072.3 0 1950.7 0 1828.8 0C1707 0 1585 0 1463 0C1341 0 1219 0 1097 0C975 0 853 0 731.2 0C609.3 0 487.7 0 365.8 0C244 0 122 0 61 0L0 0Z" fill="#b10f18"></path><path d="M0 77L61 82.5C122 88 244 99 365.8 95.7C487.7 92.3 609.3 74.7 731.2 76C853 77.3 975 97.7 1097 106C1219 114.3 1341 110.7 1463 104.8C1585 99 1707 91 1828.8 92C1950.7 93 2072.3 103 2194.2 100.8C2316 98.7 2438 84.3 2499 77.2L2560 70L2560 0L2499 0C2438 0 2316 0 2194.2 0C2072.3 0 1950.7 0 1828.8 0C1707 0 1585 0 1463 0C1341 0 1219 0 1097 0C975 0 853 0 731.2 0C609.3 0 487.7 0 365.8 0C244 0 122 0 61 0L0 0Z" fill="#970000"></path></svg>